<?xml version="1.0" standalone="no"?>
<!DOCTYPE svg PUBLIC "-//W3C//DTD SVG 20010904//EN"
 "http://www.w3.org/TR/2001/REC-SVG-20010904/DTD/svg10.dtd">
<svg version="1.0" xmlns="http://www.w3.org/2000/svg"
 width="16.000000pt" height="16.000000pt" viewBox="0 0 16.000000 16.000000"
 preserveAspectRatio="xMidYMid meet">

<g transform="translate(0.000000,16.000000) scale(0.100000,-0.100000)"
fill="#000000" stroke="none">
<path d="M16 144 c-21 -21 -21 -107 0 -128 21 -21 107 -21 128 0 21 21 21 107
0 128 -21 21 -107 21 -128 0z m119 -64 l0 -55 -55 0 -55 0 -3 44 c-5 67 0 72
60 69 l53 -3 0 -55z"/>
<path d="M59 76 l21 -20 21 20 21 21 -42 0 -42 0 21 -21z"/>
</g>
</svg>
